<svg width="356" height="109" viewBox="0 0 356 109" fill="none" xmlns="http://www.w3.org/2000/svg">
<path fill-rule="evenodd" clip-rule="evenodd" d="M185.933 59.8072C184.884 60.5647 184.225 60.3142 183.676 59.3307C182.76 57.6935 182.083 56.1175 182.974 54.1077C185.366 48.7136 188.338 43.7227 192.554 39.5565C193.164 38.9456 193.683 38.3347 194.299 37.7605C194.786 37.3833 195.297 37.0404 195.831 36.7342C196.154 37.113 196.582 37.394 196.643 37.7422C196.663 38.2002 196.562 38.6556 196.35 39.0617C194.244 44.1259 192.176 49.2084 189.967 54.2237C189.039 56.3313 187.917 58.3716 185.933 59.8072ZM324.263 59.8072C323.213 60.5647 322.554 60.3142 322.005 59.3307C321.089 57.6935 320.412 56.1175 321.303 54.1077C323.695 48.7136 326.667 43.7227 330.883 39.5565C331.494 38.9456 332.012 38.3347 332.629 37.7605C333.115 37.3833 333.626 37.0404 334.16 36.7342C334.484 37.113 334.911 37.394 334.972 37.7422C334.992 38.2002 334.891 38.6556 334.679 39.0617C332.568 44.1198 330.505 49.2023 328.296 54.2176C327.368 56.3313 326.246 58.3716 324.263 59.8072ZM278.448 18.8782C278.848 19.5885 279.393 20.2059 280.049 20.69C280.704 21.1741 281.455 21.5139 282.251 21.687C283.047 21.8601 283.87 21.8626 284.667 21.6943C285.464 21.5261 286.216 21.1909 286.875 20.7109C289.602 18.5652 291.735 15.7553 293.068 12.5495C294.124 10.1854 293.727 8.55434 291.683 6.82555C289.705 5.10049 287.206 4.08952 284.586 3.95441C283.207 3.82002 282.146 4.28429 281.603 5.56713C280.138 9.18965 278.551 12.7877 278.124 16.7279C278.029 17.4595 278.144 18.203 278.454 18.8721L278.448 18.8782ZM236.343 73.2099C233.701 75.3113 230.4 74.7371 228.191 71.866C227.281 70.6808 226.812 69.4713 227.519 68.1152C229.258 64.7736 230.802 61.3038 232.712 58.0723C235.507 53.3441 238.338 48.6097 241.566 44.1931C243.537 41.4869 246.216 39.306 248.7 37.0214C249.31 36.4838 250.579 36.0684 251.22 36.4105C251.861 36.7526 252.068 38.0171 252.526 39.0006C252.111 41.9817 251.916 45.0178 251.238 47.9256C250.55 51.3075 249.574 54.6244 248.322 57.8401C247.211 60.528 245.393 62.8677 243.94 65.3967C242.061 68.6039 239.205 70.9191 236.343 73.2038V73.2099ZM72.7694 75.0425C71.549 75.7267 70.9388 75.4579 70.2798 74.114C70.1222 73.8593 70.001 73.5837 69.9197 73.2954C69.8282 72.7212 69.8099 72.1409 69.7611 71.5605L69.5109 71.5178C69.6273 70.1878 69.8106 68.8646 70.0601 67.5531C71.1585 62.9777 73.2393 58.9336 75.6618 55.0118C78.1616 50.773 81.0941 46.8054 84.4123 43.1729C86.963 40.485 89.6601 37.956 92.9004 36.0989C94.5174 35.1704 96.5067 35.6896 97.6844 37.3696C98.0377 37.7654 98.2366 38.2755 98.2444 38.8063C98.2523 39.3371 98.0686 39.8529 97.7271 40.259C94.3344 45.0361 91.0148 49.8682 87.7319 54.7247C84.4489 59.5812 81.3856 64.3399 78.1393 69.0926C77.0036 70.676 75.7813 72.1953 74.478 73.6436C73.9966 74.2127 73.4207 74.6942 72.7755 75.067L72.7694 75.0425ZM129.519 60.1554C130.203 65.3601 128.299 69.6607 124.448 73.0694C123.008 74.3461 120.958 74.2117 119.109 74.4072C118.641 74.4313 118.173 74.4313 117.706 74.4072L117.657 74.7065C116.107 74.4194 114.526 74.2423 113.019 73.8086C111.109 73.2588 110.731 71.9454 112.085 70.4304C113.165 69.2673 114.345 68.2022 115.612 67.2477C119.207 64.4377 122.837 61.6826 126.474 58.9275C128.146 57.6996 129.269 58.1028 129.538 60.1798L129.519 60.1554ZM96.8118 9.81886C98.5448 9.81886 99.631 10.4297 100.357 11.9997C101.224 13.6955 101.602 15.599 101.449 17.4976C101.272 19.1959 100.638 19.9839 98.911 20.3382C96.7699 20.8431 94.5964 21.1983 92.4061 21.4011C88.6104 21.6127 84.8281 22.0205 81.0744 22.6229C76.3331 23.4171 71.5917 24.1868 66.8565 24.9809C65.9717 25.1275 65.0991 25.3719 64.2143 25.5551C60.9679 26.221 60.9618 26.2149 59.3936 28.8966C58.9817 29.5826 58.6069 30.2902 58.2708 31.0164C56.3852 35.207 54.6461 39.471 52.608 43.5883C50.698 47.4491 49.1237 51.432 47.5982 55.4394C46.3777 58.6099 45.2671 61.8231 44.1444 65.0302C43.3572 67.2905 42.6493 69.5813 41.8805 71.8476C40.9179 74.3656 40.2643 76.9912 39.9339 79.6669C39.8241 80.9497 39.403 82.2082 39.1711 83.4849C38.5017 86.6332 38.7129 89.9054 39.7813 92.9413C39.8598 93.1244 39.9271 93.3121 39.9827 93.5033C40.3 94.7862 39.6654 95.8491 38.4023 95.8369C36.712 95.8369 34.9485 95.7147 33.49 94.8228C31.8987 93.7902 30.3816 92.6471 28.9501 91.4019C28.3994 90.9641 27.9554 90.4066 27.652 89.7715C27.3486 89.1365 27.1936 88.4406 27.1988 87.7366C27.1988 86.24 27.0645 84.7433 26.9852 83.2467C27.1365 79.2425 27.7989 75.2742 28.9562 71.4383C30.8417 64.7187 33.3375 58.1639 35.7417 51.6031C37.8042 45.983 39.8485 40.3445 42.393 34.9077C42.9422 33.7348 43.4975 32.5619 44.0162 31.3768C44.0398 31.2827 44.0406 31.1844 44.0187 31.0899C43.9967 30.9954 43.9526 30.9075 43.89 30.8335C43.8274 30.7595 43.7481 30.7014 43.6586 30.6642C43.5691 30.6269 43.4721 30.6116 43.3755 30.6193C41.734 31.0531 40.0742 31.4257 38.4938 31.9694C34.1308 33.4599 29.7311 34.8649 25.4718 36.5998C20.639 38.5608 15.8976 40.7294 11.5956 43.7838C9.9241 44.896 8.49748 46.3388 7.40345 48.0233C6.65899 49.2451 5.98165 50.4668 6.09149 51.9329C6.10434 52.2324 6.07767 52.5323 6.01217 52.8248C5.98079 53.0498 5.89113 53.2626 5.75212 53.4421C5.61311 53.6216 5.42958 53.7616 5.21978 53.848C5.00999 53.9345 4.78123 53.9645 4.55626 53.935C4.33129 53.9056 4.11795 53.8177 3.93744 53.6801C2.01527 52.0062 0.3738 50.1369 0.160225 47.4491C0.160225 47.3513 0.160225 47.2475 0.129715 47.1497C-0.388966 43.0019 0.611783 39.5076 3.78489 36.5388C5.77492 34.7128 7.98958 33.1485 10.3752 31.8839C15.1744 29.3967 20.1202 27.2037 25.185 25.3169C33.3985 22.0731 41.8622 19.6907 50.3624 17.4121C54.9085 16.1903 59.5522 15.3718 64.141 14.3149C69.0227 13.1991 73.9349 12.2726 78.8777 11.5354C80.9524 11.23 83.0393 10.9246 85.1263 10.7413C89.0194 10.3564 92.8821 9.79442 96.8118 9.81886ZM156.906 23.9241C152.884 23.9241 148.936 24.6022 144.97 25.0786C145.093 25.2136 145.201 25.361 145.293 25.5185C145.426 25.6862 145.515 25.8842 145.552 26.0948C145.59 26.3054 145.575 26.522 145.508 26.7253C145.442 26.9286 145.326 27.1122 145.171 27.2598C145.017 27.4074 144.828 27.5143 144.622 27.571C144.45 27.6454 144.27 27.6988 144.085 27.7299C140.424 28.2491 137.751 30.6254 135.255 32.8857C131.594 36.1661 129.373 40.3506 130.477 45.5859C131.057 48.3165 131.948 48.7441 134.309 47.3391C136.787 45.8669 139.154 44.2053 141.632 42.7758C145.678 40.4667 149.79 38.2798 153.879 36.0562C154.776 35.5675 155.673 35.0726 156.588 34.6145L156.179 34.8222C157.198 32.2321 158.242 29.6541 159.23 27.0518C160.164 24.6632 159.499 23.9302 156.906 23.9241ZM304.723 8.85978C305.602 6.24521 306.06 5.80538 308.702 6.54454C310.752 7.10044 312.876 7.50362 314.493 9.15911C316.11 10.8146 317.044 12.7144 316.379 15.1885C315.842 17.1861 316.379 17.7542 318.343 17.8031C319.649 17.8397 320.961 17.8031 322.267 17.8031V17.3693C325.16 17.3693 328.052 17.3021 330.938 17.4121C331.848 17.4223 332.725 17.7532 333.416 18.3467C335.13 20.1794 334.227 22.4152 331.646 22.7817C329.815 23.0444 327.924 23.0689 326.057 23.1788C322.896 23.3621 319.735 23.5698 316.568 23.6981C314.505 23.7836 313.102 24.5533 312.26 26.5753C308.543 35.5064 304.132 44.1442 301.642 53.5701C300.672 57.2354 299.085 60.7357 297.92 64.3582C296.557 68.6059 295.279 72.8821 294.087 77.1867C292.745 82.031 291.525 86.9119 290.292 91.7868C289.81 93.6805 289.364 95.5864 289.072 97.5168C288.962 98.1766 289.297 98.9096 289.425 99.606C290.036 99.2884 290.829 99.1173 291.256 98.6286C292.488 97.2304 293.608 95.7372 294.606 94.1631C297.747 88.9991 300.83 83.7985 303.857 78.5612C305.84 75.1403 307.768 71.6949 309.709 68.2495C308.446 64.7003 308.312 60.7479 309.148 56.5145C310.685 48.7136 313.877 41.5419 319.338 35.6652C321.98 32.8185 325.19 30.4788 328.229 28.017C329.712 26.7952 331.5 26.8502 333.294 27.4061C334.996 27.907 336.747 28.243 338.407 28.8478C340.067 29.4525 341.806 30.0695 343.149 31.108C345.589 33.0384 345.949 35.7446 345.248 38.7074C343.881 44.468 341.471 49.8193 338.95 55.1217C337.878 57.5003 336.655 59.808 335.289 62.0308C334.184 63.6403 332.88 65.1037 331.408 66.3864C330.261 67.4432 328.882 67.6081 327.246 66.9972C325.204 66.3239 323.349 65.1769 321.834 63.6496C321.169 62.9471 320.363 62.1041 319.46 62.7028C318.776 63.2899 318.34 64.1152 318.24 65.0119C317.947 66.7536 317.89 68.5267 318.069 70.2838C318.539 73.5764 320.418 76.4353 324.665 75.7267C328.169 75.1106 331.427 73.5136 334.063 71.1207C338.596 67.1988 342.441 62.6356 346.224 58.0112C348.702 54.9568 351.319 52.0734 353.919 49.1473C354.32 48.8286 354.772 48.5788 355.255 48.4082C355.432 48.9824 355.865 49.6299 355.743 50.1186C354.523 54.1138 353.345 58.1273 350.819 61.5665C348.067 65.3173 345.467 69.1842 342.581 72.8311C340.828 75.005 338.872 77.0074 336.741 78.8117C334.301 80.9253 331.249 81.414 328.143 81.2552C323.695 81.4995 319.985 79.6913 316.653 77.2539C314.543 75.7509 312.739 73.8578 311.338 71.6766C311.116 72.5196 310.847 73.3496 310.533 74.1629C308.202 80.1434 305.608 86.0384 302.881 91.8784C301.166 95.3866 299.262 98.7984 297.175 102.098C295.345 105.092 292.904 107.462 289.389 108.549C288.379 108.918 287.301 109.06 286.231 108.965C285.16 108.87 284.124 108.541 283.195 108C277.746 104.835 275.409 99.9909 276.709 93.5217C277.868 87.7672 279.149 82.031 280.626 76.3498C279.919 77.1437 279.163 77.8925 278.362 78.5917C275.031 81.5118 270.246 81.4446 266.628 78.8361C264.047 77.0035 261.746 74.7371 260.569 71.6583C260.195 70.5226 259.879 69.3686 259.623 68.2007C259.952 63.9856 261.173 60.0576 262.393 56.1541C264.004 51.2121 265.584 46.2518 267.348 41.3586C268.391 38.4752 269.789 35.7141 271.009 32.8979C271.619 31.4501 272.315 30.0268 272.901 28.5607C273.658 26.673 274.365 26.1171 276.312 26.6853C278.112 27.1489 279.838 27.8646 281.438 28.8111C284.147 30.5277 284.617 32.9712 283.451 35.9034C280.846 42.4704 277.96 48.9335 275.519 55.5616C273.725 60.4486 272.468 65.5372 270.985 70.5403C270.91 70.7136 270.877 70.9018 270.887 71.0901C271.046 71.8598 271.241 72.6173 271.418 73.387C272.028 73.1183 272.84 73.0022 273.298 72.5501C276.764 69.172 280.48 66.0259 283.213 61.9636C283.368 61.7304 283.544 61.5116 283.738 61.3099C284.318 60.6991 284.776 60.6258 285.117 61.0534C287.473 54.0221 289.999 47.0398 292.501 40.0635C294.087 35.6896 295.9 31.4013 297.547 27.0518C298.451 24.6755 297.785 23.9424 295.192 23.9363C289.7 23.9363 284.281 25.2191 278.796 25.4879C277.307 25.5612 275.812 25.549 274.329 25.4879C273.511 25.4452 272.425 25.3535 272.443 24.2662C272.443 23.3071 273.487 23.4109 274.207 23.301C279.644 22.5007 285.081 21.6822 290.524 20.9124C292.743 20.5127 294.985 20.2556 297.236 20.1427C298.176 20.177 299.103 19.9107 299.882 19.3824C300.661 18.8541 301.252 18.0913 301.569 17.2044C302.74 14.4615 303.778 11.682 304.723 8.85978ZM232.236 2.54939C233.005 0.460176 233.853 0.056995 236.154 0.673984C238.454 1.29097 240.218 2.84261 241.707 4.60194C242.283 5.20613 242.672 5.96431 242.826 6.78491C242.981 7.60551 242.895 8.45344 242.579 9.22631C241.524 11.7798 240.425 14.3394 239.425 16.9051C238.851 18.3712 238.522 19.9595 237.869 21.3767C235.58 26.3981 233.054 31.2974 230.906 36.3921C228.758 41.4869 227.001 46.6183 225.133 51.7558C224.572 53.2891 224.169 54.8957 223.693 56.4718L224.255 56.6184C227.648 51.2915 230.967 45.928 234.451 40.6561C237.045 36.7159 240.554 33.6493 244.41 30.9431C245.254 30.3894 246.205 30.021 247.201 29.862C248.197 29.703 249.215 29.7571 250.189 30.0207C252.207 30.4711 254.171 31.1367 256.047 32.006C260.562 34.1197 261.661 38.2859 262.527 42.4399C263.235 45.8241 262.411 49.0862 261.917 52.3361C260.87 58.7663 258.56 64.9248 255.119 70.4548C254.575 71.4102 253.897 72.2824 253.106 73.045C250.805 75.1342 248.517 77.2478 246.021 79.1049C242.799 81.5118 238.918 81.2246 235.037 80.0029C232.242 79.1232 229.344 78.4818 226.995 76.2826C226.067 75.4152 225.011 75.4396 224.005 76.5148C222.375 78.2619 220.404 79.844 217.573 78.7261C215.609 77.9395 213.87 76.6807 212.508 75.0609C209.945 72.0859 209.347 68.9521 209.457 65.7266C207.755 68.1213 206.046 70.5098 204.228 72.8128C202.474 74.9867 200.519 76.9891 198.388 78.7933C195.947 80.907 192.896 81.3957 189.79 81.2369C185.341 81.4812 181.631 79.673 178.3 77.2356C176.189 75.7326 174.385 73.8395 172.985 71.6583C172.762 72.5012 172.493 73.3313 172.179 74.1445C169.848 80.1251 167.255 86.02 164.527 91.8601C162.808 95.377 160.897 98.797 158.803 102.105C156.973 105.098 154.532 107.468 151.017 108.555C150.008 108.924 148.929 109.066 147.859 108.971C146.789 108.876 145.752 108.547 144.823 108.006C139.374 104.841 137.037 99.997 138.337 93.5278C140.37 83.0135 143.043 72.6336 146.343 62.4462C148.839 54.9446 151.505 47.4979 154.196 40.0635C154.412 39.4649 154.634 38.8662 154.861 38.2675L154.611 38.4508L153.903 38.9273C151.969 40.1979 149.9 41.1814 148.131 42.7881C146.361 44.3947 144.109 45.4148 142.084 46.7221C140.442 47.779 138.788 48.8236 137.202 49.972C134.645 51.8046 134.419 52.8065 135.719 55.6043C136.189 56.6184 136.732 57.5958 137.202 58.6099C140.54 65.7938 138.831 72.2447 134.151 78.158C132.161 80.6687 129.202 81.3529 126.126 81.4934H125.474H124.162C119.28 81.0597 114.642 79.8196 110.773 76.6064L110.816 76.643L110.639 76.9302C108.198 80.6993 103.829 81.5056 99.7653 79.1354L99.4846 78.9644C95.1337 76.2582 92.4976 72.3547 92.0888 67.1561C92.0227 66.2786 91.8839 65.4082 91.6738 64.5537C91.5701 64.1444 91.1979 63.4908 90.9599 63.4847C90.7367 63.5035 90.5205 63.5713 90.3264 63.6832C90.1324 63.7951 89.9653 63.9484 89.8371 64.1322C87.0728 68.0846 84.4916 72.1836 81.5626 75.9955C79.8784 78.1886 77.6816 79.954 74.4841 79.6974C72.0433 79.5019 69.5475 79.8074 67.3019 78.1214C63.421 75.2136 61.0534 71.5116 60.7788 65.861C60.4864 61.3403 61.6476 56.8447 64.0922 53.0325C66.6368 49.0129 68.8153 44.7123 71.61 40.9004C73.8373 37.846 76.7419 35.3536 79.3658 32.6352C80.1227 31.7091 80.9989 30.8874 81.9715 30.1917C83.5248 29.3202 85.2953 28.9131 87.0728 29.0188C91.9621 29.1323 96.6643 30.9221 100.394 34.0891C102.176 35.5552 102.645 35.4331 103.536 33.4782C103.732 33.0506 103.927 32.623 104.116 32.1893C105.379 29.2998 105.715 29.1349 108.803 29.5686C112.513 30.1184 115.771 34.2968 114.905 37.9193C114.172 40.9432 112.793 43.7594 111.695 46.661C110.34 50.2713 109.016 53.8939 107.613 57.4858C106.758 59.685 105.666 61.762 104.885 64.0039C104.139 66.1499 103.548 68.3465 103.115 70.577C102.975 71.2856 103.53 72.1897 103.768 73.0205C104.519 72.8067 105.446 72.8006 105.989 72.3363L106.148 72.2019C105.617 71.2367 105.745 70.2838 106.618 69.117C107.782 67.5454 109.141 66.1289 110.664 64.9019C114.673 61.7131 118.804 58.6771 122.868 55.586C123.387 55.1889 123.948 54.8468 124.454 54.4314C126.035 53.1303 126.285 52.1101 125.388 50.2713C124.491 48.4326 123.686 46.7466 122.728 45.0422C121.514 42.9883 120.795 40.6795 120.628 38.2991C120.46 35.9186 120.849 33.5318 121.763 31.3279C122.941 28.3652 125.315 26.1233 127.67 23.9974C128.157 23.5603 128.682 23.1678 129.239 22.8245C131.252 21.5722 133.29 20.6986 135.829 21.2423C137.493 21.5753 139.126 22.0473 140.711 22.6535C144.524 22.0914 148.344 21.5233 152.164 20.9796C154.374 20.5914 156.605 20.3445 158.846 20.2405C159.786 20.2747 160.713 20.0084 161.492 19.4802C162.271 18.9519 162.862 18.189 163.179 17.3021C164.344 14.5715 165.388 11.8042 166.333 8.95752C167.212 6.34295 167.67 5.90312 170.312 6.64228C172.362 7.19818 174.486 7.60136 176.103 9.25685C177.72 10.9123 178.654 12.8122 177.988 15.2862C177.451 17.2838 177.988 17.8519 179.953 17.9008C181.259 17.9375 182.571 17.9008 183.877 17.9008V17.4671C186.769 17.4671 189.662 17.3999 192.548 17.5098C193.458 17.52 194.335 17.851 195.026 18.4445C196.74 20.2771 195.837 22.5129 193.256 22.8795C191.425 23.1422 189.534 23.1666 187.666 23.2765C184.505 23.4598 181.345 23.6675 178.178 23.7958C176.115 23.8813 174.712 24.651 173.869 26.673C170.251 35.5186 165.809 44.1564 163.313 53.5579C162.343 57.2232 160.756 60.7235 159.591 64.346C158.228 68.5937 156.95 72.8698 155.758 77.1745C154.416 82.0188 153.195 86.8997 151.963 91.7745C151.481 93.6683 151.029 95.5742 150.742 97.5046C150.633 98.1643 150.968 98.8974 151.096 99.5938C151.707 99.2761 152.5 99.1051 152.927 98.6164C154.159 97.2182 155.279 95.725 156.277 94.1509C159.418 88.9869 162.501 83.7863 165.528 78.549C167.511 75.1281 169.439 71.6827 171.38 68.2373C170.117 64.6881 169.982 60.7357 170.818 56.5023C172.362 48.7014 175.548 41.5296 181.009 35.653C183.651 32.8063 186.861 30.4666 189.9 28.0048C191.383 26.783 193.171 26.838 194.965 27.3939C196.667 27.8948 198.418 28.2308 200.078 28.8356C201.738 29.4403 203.477 30.0573 204.819 31.0958C207.26 33.0262 207.62 35.7324 206.919 38.6952C205.552 44.4558 203.141 49.8071 200.621 55.1095C199.549 57.4881 198.326 59.7958 196.96 62.0186C195.86 63.627 194.562 65.0904 193.097 66.3741C191.95 67.431 190.571 67.5959 188.936 66.985C186.893 66.3117 185.039 65.1647 183.523 63.6374C182.858 62.9349 182.052 62.0919 181.149 62.6905C180.465 63.2777 180.029 64.103 179.929 64.9997C179.636 66.7414 179.579 68.5145 179.758 70.2716C180.228 73.5642 182.107 76.4231 186.354 75.7145C189.859 75.0983 193.117 73.5014 195.752 71.1085C200.286 67.1866 204.13 62.6233 207.913 57.999C209.134 56.484 210.433 54.9934 211.727 53.5151C213.307 47.84 215.214 42.2615 217.439 36.8075C219.273 32.1567 221.212 27.5547 223.254 23.0017C225.024 19.0493 227.074 15.2435 228.844 11.2972C229.753 9.26296 230.558 7.16764 231.333 5.06621L232.236 2.54939Z" fill="#131313"/>
</svg>
